<svg width="344" height="53" viewBox="0 0 344 53" fill="none" xmlns="http://www.w3.org/2000/svg">
<path d="M20.2205 41.5669C17.9528 41.5669 16.126 41.1417 14.7402 40.2913C13.3544 39.4409 12.3307 38.2598 11.6693 36.748C11.0079 35.2362 10.6772 33.5197 10.6772 31.5984H13.5118C13.5118 33.3307 13.7796 34.7638 14.315 35.8976C14.8504 37 15.6378 37.8189 16.6772 38.3543C17.7166 38.8898 18.9764 39.1575 20.4567 39.1575C22.6929 39.1575 24.441 38.5906 25.7008 37.4567C26.9922 36.2913 27.8898 34.622 28.3937 32.4488C28.9292 30.2756 29.2126 27.6614 29.2441 24.6063C28.5827 25.7717 27.7481 26.7165 26.7402 27.4409C25.7638 28.1654 24.6929 28.7008 23.5276 29.0472C22.3937 29.3622 21.2126 29.5197 19.9843 29.5197C17.6221 29.5197 15.6536 29.063 14.0788 28.1496C12.5355 27.2047 11.3859 25.9449 10.63 24.3701C9.87405 22.7638 9.4961 20.9843 9.4961 19.0315C9.4961 16.8268 9.96854 14.9055 10.9134 13.2677C11.8583 11.5984 13.1496 10.3071 14.7874 9.39371C16.4252 8.48032 18.252 8.02363 20.2678 8.02363C22.126 8.02363 23.7796 8.29135 25.2284 8.82678C26.7087 9.33072 27.9528 10.1811 28.9607 11.378C29.9685 12.5748 30.7402 14.1969 31.2756 16.2441C31.8111 18.2598 32.0788 20.7953 32.0788 23.8504C32.0788 27.0945 31.8111 29.8661 31.2756 32.1654C30.7402 34.4331 29.9685 36.2598 28.9607 37.6457C27.9843 39 26.7559 39.9921 25.2756 40.622C23.7953 41.252 22.1103 41.5669 20.2205 41.5669ZM20.4095 27.1575C22.2678 27.1575 23.8111 26.7795 25.0394 26.0236C26.2992 25.2362 27.2284 24.1969 27.8268 22.9055C28.4567 21.5827 28.7717 20.1811 28.7717 18.7008C28.7717 17.189 28.4725 15.8032 27.874 14.5433C27.2756 13.2835 26.378 12.2913 25.1811 11.5669C23.9843 10.811 22.4567 10.4331 20.5985 10.4331C18.7087 10.4331 17.1654 10.8268 15.9685 11.6142C14.7717 12.4016 13.8741 13.4567 13.2756 14.7795C12.6772 16.0709 12.378 17.5039 12.378 19.0787C12.378 20.5276 12.6615 21.8661 13.2284 23.0945C13.7953 24.2913 14.6615 25.2677 15.8268 26.0236C17.0237 26.7795 18.5512 27.1575 20.4095 27.1575ZM48.4389 41.5669C46.5806 41.5669 44.9113 41.315 43.431 40.811C41.9822 40.2756 40.7538 39.4094 39.746 38.2126C38.7381 37.0157 37.9664 35.4095 37.431 33.3937C36.8956 31.3465 36.6279 28.7953 36.6279 25.7402C36.6279 22.4646 36.8798 19.6929 37.3838 17.4252C37.9192 15.1575 38.6909 13.3465 39.6987 11.9921C40.7066 10.6063 41.9507 9.59843 43.431 8.96851C44.9113 8.33859 46.5964 8.02363 48.4861 8.02363C50.7223 8.02363 52.5334 8.44883 53.9192 9.29922C55.3365 10.1496 56.3759 11.3307 57.0373 12.8425C57.6987 14.3543 58.0294 16.0709 58.0294 17.9921H55.1948C55.1948 16.2598 54.9271 14.8425 54.3916 13.7402C53.8562 12.6063 53.0688 11.7717 52.0294 11.2362C51.0216 10.7008 49.7617 10.4331 48.2499 10.4331C45.9822 10.4331 44.2184 11.0158 42.9586 12.1811C41.6987 13.315 40.8011 14.9685 40.2657 17.1417C39.7617 19.2835 39.494 21.8976 39.4625 24.9843C40.1239 23.8189 40.9428 22.874 41.9192 22.1496C42.9271 21.4252 44.0137 20.9055 45.179 20.5906C46.3444 20.2441 47.5255 20.0709 48.7223 20.0709C51.116 20.0709 53.0845 20.5433 54.6279 21.4882C56.1712 22.4016 57.3208 23.6614 58.0767 25.2677C58.8326 26.8425 59.2105 28.6063 59.2105 30.5591C59.2105 32.7323 58.7381 34.6535 57.7932 36.3228C56.8483 37.9921 55.557 39.2835 53.9192 40.1969C52.3129 41.1102 50.4861 41.5669 48.4389 41.5669ZM48.1082 39.1575C49.9979 39.1575 51.5412 38.7638 52.7381 37.9764C53.9664 37.189 54.8641 36.1496 55.431 34.8583C56.0294 33.5354 56.3286 32.0866 56.3286 30.5118C56.3286 29.063 56.0452 27.7402 55.4782 26.5433C54.9113 25.315 54.0294 24.3228 52.8326 23.5669C51.6672 22.811 50.1397 22.4331 48.2499 22.4331C46.4231 22.4331 44.8798 22.8268 43.62 23.6142C42.3916 24.3701 41.4625 25.3937 40.8326 26.685C40.2342 27.9764 39.9349 29.378 39.9349 30.8898C39.9349 32.3701 40.2184 33.7559 40.7853 35.0472C41.3838 36.3071 42.2814 37.315 43.4783 38.0709C44.7066 38.7953 46.2499 39.1575 48.1082 39.1575ZM63.6179 41V39.8189C63.6179 38.5591 63.8856 37.3937 64.421 36.3228C64.9565 35.252 65.6809 34.2598 66.5943 33.3465C67.5076 32.4331 68.5155 31.5669 69.6179 30.748C70.7517 29.8976 71.9013 29.063 73.0667 28.2441C74.8305 27.0472 76.421 25.8819 77.8384 24.748C79.2872 23.6142 80.4368 22.4016 81.2872 21.1102C82.1376 19.7874 82.5628 18.3071 82.5628 16.6693C82.5628 15.378 82.2636 14.2598 81.6651 13.315C81.0982 12.3701 80.2636 11.6614 79.1612 11.189C78.0588 10.685 76.7045 10.4331 75.0982 10.4331C72.988 10.4331 71.3344 10.811 70.1376 11.5669C68.9407 12.2913 68.0903 13.2205 67.5864 14.3543C67.1139 15.4882 66.8777 16.6378 66.8777 17.8032V19.7402H64.1376C64.1061 19.5827 64.0746 19.3307 64.0431 18.9843C64.0116 18.6378 63.9958 18.2598 63.9958 17.8504C63.9958 15.5197 64.5155 13.6457 65.5549 12.2284C66.6258 10.7795 68.0116 9.72442 69.7124 9.063C71.4447 8.37009 73.3029 8.02363 75.2872 8.02363C76.736 8.02363 78.0746 8.21261 79.3029 8.59056C80.5628 8.93702 81.6494 9.47245 82.5628 10.1969C83.4761 10.9213 84.1848 11.8347 84.6887 12.937C85.1927 14.0079 85.4447 15.2677 85.4447 16.7165C85.4447 18.1969 85.1769 19.5354 84.6415 20.7323C84.1376 21.9291 83.4132 23.0472 82.4683 24.0866C81.5549 25.126 80.4683 26.1339 79.2084 27.1102C77.9486 28.0551 76.5785 29.0158 75.0982 29.9921C73.8699 30.8425 72.6415 31.7402 71.4132 32.685C70.1848 33.6299 69.1297 34.5906 68.2478 35.5669C67.3974 36.5433 66.9092 37.4724 66.7832 38.3543H85.6336V41H63.6179ZM90.0543 41V39.8189C90.0543 38.5591 90.322 37.3937 90.8574 36.3228C91.3929 35.252 92.1173 34.2598 93.0306 33.3465C93.944 32.4331 94.9519 31.5669 96.0543 30.748C97.1881 29.8976 98.3377 29.063 99.5031 28.2441C101.267 27.0472 102.857 25.8819 104.275 24.748C105.724 23.6142 106.873 22.4016 107.724 21.1102C108.574 19.7874 108.999 18.3071 108.999 16.6693C108.999 15.378 108.7 14.2598 108.102 13.315C107.535 12.3701 106.7 11.6614 105.598 11.189C104.495 10.685 103.141 10.4331 101.535 10.4331C99.4243 10.4331 97.7708 10.811 96.574 11.5669C95.3771 12.2913 94.5267 13.2205 94.0228 14.3543C93.5503 15.4882 93.3141 16.6378 93.3141 17.8032V19.7402H90.574C90.5425 19.5827 90.511 19.3307 90.4795 18.9843C90.448 18.6378 90.4322 18.2598 90.4322 17.8504C90.4322 15.5197 90.9519 13.6457 91.9913 12.2284C93.0621 10.7795 94.448 9.72442 96.1488 9.063C97.881 8.37009 99.7393 8.02363 101.724 8.02363C103.172 8.02363 104.511 8.21261 105.739 8.59056C106.999 8.93702 108.086 9.47245 108.999 10.1969C109.913 10.9213 110.621 11.8347 111.125 12.937C111.629 14.0079 111.881 15.2677 111.881 16.7165C111.881 18.1969 111.613 19.5354 111.078 20.7323C110.574 21.9291 109.85 23.0472 108.905 24.0866C107.991 25.126 106.905 26.1339 105.645 27.1102C104.385 28.0551 103.015 29.0158 101.535 29.9921C100.306 30.8425 99.0779 31.7402 97.8495 32.685C96.6212 33.6299 95.5661 34.5906 94.6842 35.5669C93.8338 36.5433 93.3456 37.4724 93.2196 38.3543H112.07V41H90.0543Z" fill="white"/>
<rect x="0.000488281" y="9.41733" width="2.86614" height="42.1732" fill="white"/>
<rect x="29.4805" y="49.1339" width="2.86205" height="29.4803" transform="rotate(90 29.4805 49.1339)" fill="white"/>
<rect x="112.189" y="49.1339" width="2.86614" height="75.748" transform="rotate(90 112.189 49.1339)" fill="white"/>
<path d="M140.419 12.1786V24.2672H138.975L132.403 14.7748H132.274V24.2672H130.813V12.1786H132.225L138.845 21.6872H138.959V12.1786H140.419ZM147.437 24.4295C146.409 24.4295 145.493 24.178 144.687 23.675C143.881 23.172 143.245 22.458 142.78 21.5331C142.32 20.6028 142.09 19.5021 142.09 18.231C142.09 16.9546 142.32 15.8512 142.78 14.9208C143.245 13.9905 143.881 13.2739 144.687 12.7708C145.493 12.2678 146.409 12.0163 147.437 12.0163C148.47 12.0163 149.387 12.2678 150.187 12.7708C150.988 13.2739 151.618 13.9905 152.078 14.9208C152.538 15.8512 152.767 16.9546 152.767 18.231C152.767 19.5021 152.538 20.6028 152.078 21.5331C151.618 22.458 150.988 23.172 150.187 23.675C149.387 24.178 148.47 24.4295 147.437 24.4295ZM147.437 23.0665C148.167 23.0665 148.827 22.8826 149.417 22.5148C150.012 22.1416 150.482 21.5953 150.828 20.8759C151.18 20.1566 151.356 19.2749 151.356 18.231C151.356 17.1817 151.18 16.2974 150.828 15.578C150.482 14.8532 150.012 14.3069 149.417 13.9391C148.827 13.5659 148.167 13.3793 147.437 13.3793C146.707 13.3793 146.044 13.5659 145.449 13.9391C144.854 14.3069 144.381 14.8532 144.03 15.578C143.678 16.2974 143.502 17.1817 143.502 18.231C143.502 19.2749 143.678 20.1566 144.03 20.8759C144.381 21.5953 144.854 22.1416 145.449 22.5148C146.044 22.8826 146.707 23.0665 147.437 23.0665ZM148.654 11.1076L147.421 9.45255L146.204 11.1076H144.873V11.0103L146.788 8.54387H148.07L149.968 11.0103V11.1076H148.654ZM147.437 27.2529C147.167 27.2529 146.934 27.1609 146.739 26.977C146.545 26.7932 146.447 26.5714 146.447 26.3118C146.447 26.0521 146.545 25.8304 146.739 25.6465C146.934 25.4626 147.167 25.3706 147.437 25.3706C147.708 25.3706 147.94 25.4626 148.135 25.6465C148.33 25.8304 148.427 26.0521 148.427 26.3118C148.427 26.5714 148.33 26.7932 148.135 26.977C147.94 27.1609 147.708 27.2529 147.437 27.2529ZM155.899 12.1786V24.2672H154.439V12.1786H155.899ZM165.765 24.4782C164.899 24.4782 164.15 24.3403 163.517 24.0644C162.885 23.7832 162.387 23.3937 162.025 22.8961C161.668 22.3931 161.465 21.8116 161.416 21.1518H162.925C162.968 21.6061 163.123 21.982 163.388 22.2795C163.658 22.577 164.002 22.7988 164.418 22.9448C164.834 23.0908 165.283 23.1638 165.765 23.1638C166.322 23.1638 166.822 23.0719 167.266 22.888C167.715 22.7041 168.069 22.4472 168.329 22.1172C168.588 21.7873 168.718 21.4006 168.718 20.9571C168.718 20.5568 168.604 20.2323 168.377 19.9835C168.15 19.7347 167.853 19.5318 167.485 19.375C167.122 19.2181 166.728 19.0802 166.3 18.9612L164.824 18.5393C163.877 18.2689 163.128 17.8822 162.576 17.3791C162.03 16.8707 161.757 16.2081 161.757 15.3914C161.757 14.7153 161.938 14.1257 162.3 13.6227C162.668 13.1143 163.163 12.7195 163.785 12.4382C164.413 12.1569 165.11 12.0163 165.878 12.0163C166.657 12.0163 167.35 12.1569 167.955 12.4382C168.561 12.7141 169.043 13.0927 169.399 13.5741C169.756 14.05 169.946 14.5909 169.967 15.1967H168.539C168.469 14.6017 168.183 14.1393 167.679 13.8093C167.182 13.4794 166.565 13.3144 165.83 13.3144C165.3 13.3144 164.834 13.401 164.434 13.5741C164.034 13.7471 163.723 13.9851 163.501 14.288C163.279 14.5909 163.169 14.9371 163.169 15.3265C163.169 15.7538 163.301 16.1 163.566 16.365C163.831 16.6246 164.145 16.8274 164.507 16.9735C164.875 17.1195 165.208 17.2358 165.505 17.3223L166.722 17.6631C167.036 17.7496 167.385 17.8659 167.769 18.012C168.158 18.158 168.531 18.3554 168.888 18.6042C169.251 18.853 169.548 19.1722 169.781 19.5616C170.013 19.9456 170.13 20.4216 170.13 20.9895C170.13 21.6386 169.959 22.2281 169.619 22.7582C169.278 23.2828 168.783 23.702 168.134 24.0157C167.485 24.324 166.695 24.4782 165.765 24.4782ZM172.255 24.2672H170.714L175.16 12.1786H176.669L181.099 24.2672H179.573L175.955 14.0933H175.858L172.255 24.2672ZM172.823 19.5454H179.006V20.8435H172.823V19.5454ZM191.808 12.1786V24.2672H190.364L183.792 14.7748H183.662V24.2672H182.202V12.1786H183.614L190.234 21.6872H190.348V12.1786H191.808ZM197.844 24.2672V12.1786H199.305V18.1823H199.451L204.887 12.1786H206.785L201.722 17.6306L206.785 24.2672H205.016L200.814 18.6529L199.305 20.3567V24.2672H197.844ZM207.905 24.2672V12.1786H209.365V17.5657H215.807V12.1786H217.267V24.2672H215.807V18.8639H209.365V24.2672H207.905ZM224.285 24.4295C223.258 24.4295 222.341 24.178 221.535 23.675C220.729 23.172 220.093 22.458 219.628 21.5331C219.169 20.6028 218.939 19.5021 218.939 18.231C218.939 16.9546 219.169 15.8512 219.628 14.9208C220.093 13.9905 220.729 13.2739 221.535 12.7708C222.341 12.2678 223.258 12.0163 224.285 12.0163C225.318 12.0163 226.235 12.2678 227.036 12.7708C227.836 13.2739 228.466 13.9905 228.926 14.9208C229.386 15.8512 229.616 16.9546 229.616 18.231C229.616 19.5021 229.386 20.6028 228.926 21.5331C228.466 22.458 227.836 23.172 227.036 23.675C226.235 24.178 225.318 24.4295 224.285 24.4295ZM224.285 23.0665C225.015 23.0665 225.675 22.8826 226.265 22.5148C226.86 22.1416 227.33 21.5953 227.677 20.8759C228.028 20.1566 228.204 19.2749 228.204 18.231C228.204 17.1817 228.028 16.2974 227.677 15.578C227.33 14.8532 226.86 14.3069 226.265 13.9391C225.675 13.5659 225.015 13.3793 224.285 13.3793C223.555 13.3793 222.892 13.5659 222.298 13.9391C221.703 14.3069 221.229 14.8532 220.878 15.578C220.526 16.2974 220.35 17.1817 220.35 18.231C220.35 19.2749 220.526 20.1566 220.878 20.8759C221.229 21.5953 221.703 22.1416 222.298 22.5148C222.892 22.8826 223.555 23.0665 224.285 23.0665ZM221.235 11.0427L223.636 8.90085H224.934L227.352 11.0427H225.648L224.301 9.7933L222.955 11.0427H221.235ZM226.703 9.59859L227.871 7.47293H229.591L227.936 9.59859H226.703ZM232.747 12.1786V24.2672H231.287V12.1786H232.747ZM238.784 24.2672V12.1786H240.244V22.9691H245.874V24.2672H238.784ZM245.745 12.1786H247.416L250.775 17.8254H250.921L254.263 12.1786H255.951L251.57 19.2857V24.2672H250.11V19.2857L245.745 12.1786ZM250.158 11.0427L251.294 8.81972H252.868L251.31 11.0427H250.158Z" fill="white"/>
<path d="M130.148 37.2136V35.9155H139.218V37.2136H135.421V48.0041H133.961V37.2136H130.148ZM139.575 48.0041V38.9336H140.906V40.3128H141.003C141.171 39.8639 141.471 39.5015 141.904 39.2256C142.342 38.9444 142.831 38.8038 143.372 38.8038C143.475 38.8038 143.602 38.8065 143.754 38.8119C143.905 38.8119 144.021 38.8146 144.103 38.82V40.2317C144.054 40.2209 143.946 40.2046 143.778 40.183C143.61 40.1614 143.432 40.1505 143.243 40.1505C142.804 40.1505 142.412 40.2425 142.066 40.4264C141.72 40.6103 141.447 40.8618 141.247 41.1809C141.052 41.5 140.955 41.8651 140.955 42.2762V48.0041H139.575ZM151.218 39.7043L150.69 38.9336C151.35 38.9336 151.834 38.747 152.143 38.3738C152.451 38.0006 152.605 37.4137 152.605 36.6132H153.903C153.903 37.576 153.665 38.3332 153.189 38.8849C152.713 39.4312 152.056 39.7043 151.218 39.7043ZM150.69 44.3045V38.9336H152.07V48.0041H150.69V46.4626H150.593C150.377 46.9224 150.044 47.3145 149.595 47.639C149.152 47.9636 148.586 48.1231 147.9 48.1177C147.332 48.1177 146.829 47.996 146.39 47.7526C145.952 47.5038 145.606 47.1252 145.352 46.6168C145.103 46.1083 144.979 45.4674 144.979 44.6939V38.9336H146.358V44.6128C146.358 45.2673 146.545 45.7919 146.918 46.1868C147.296 46.5816 147.775 46.7763 148.354 46.7709C148.7 46.7709 149.052 46.6844 149.409 46.5113C149.771 46.3328 150.074 46.0624 150.317 45.7C150.566 45.3322 150.69 44.867 150.69 44.3045ZM160.288 41.2702L159.826 40.2804C160.329 40.2804 160.697 40.1181 160.929 39.7936C161.167 39.4636 161.286 38.9498 161.286 38.2521H162.584C162.584 39.2419 162.371 39.9694 161.943 40.4345C161.516 40.8997 160.964 41.1782 160.288 41.2702ZM157.522 48.1988C156.705 48.1988 155.988 48.0041 155.372 47.6147C154.755 47.2253 154.274 46.679 153.928 45.9758C153.587 45.2727 153.416 44.4559 153.416 43.5256C153.416 42.5791 153.587 41.7543 153.928 41.0511C154.274 40.3426 154.755 39.7936 155.372 39.4041C155.988 39.0147 156.705 38.82 157.522 38.82C158.344 38.82 159.063 39.0147 159.68 39.4041C160.296 39.7936 160.778 40.3426 161.124 41.0511C161.47 41.7543 161.643 42.5791 161.643 43.5256C161.643 44.4559 161.47 45.2727 161.124 45.9758C160.778 46.679 160.296 47.2253 159.68 47.6147C159.063 48.0041 158.344 48.1988 157.522 48.1988ZM157.522 46.9494C158.149 46.9494 158.663 46.7898 159.063 46.4707C159.464 46.1516 159.761 45.7324 159.956 45.2132C160.15 44.6885 160.248 44.126 160.248 43.5256C160.248 42.9144 160.15 42.3465 159.956 41.8219C159.761 41.2972 159.464 40.8753 159.063 40.5562C158.663 40.2317 158.149 40.0694 157.522 40.0694C156.905 40.0694 156.397 40.2317 155.996 40.5562C155.596 40.8753 155.299 41.2972 155.104 41.8219C154.909 42.3465 154.812 42.9144 154.812 43.5256C154.812 44.126 154.909 44.6885 155.104 45.2132C155.299 45.7324 155.596 46.1516 155.996 46.4707C156.397 46.7898 156.905 46.9494 157.522 46.9494ZM157.051 37.7977L155.493 35.5747H157.067L158.203 37.7977H157.051ZM164.369 42.5521V48.0041H162.99V38.9336H164.321V40.3615H164.45C164.661 39.8963 164.983 39.5231 165.416 39.2419C165.849 38.9606 166.408 38.82 167.095 38.82C167.707 38.82 168.242 38.9444 168.702 39.1932C169.161 39.442 169.518 39.8206 169.773 40.329C170.032 40.8321 170.162 41.4703 170.162 42.2438V48.0041H168.783V42.3411C168.783 41.6326 168.596 41.0782 168.223 40.6779C167.85 40.2722 167.341 40.0694 166.698 40.0694C166.254 40.0694 165.857 40.1668 165.505 40.3615C165.154 40.5562 164.875 40.8375 164.669 41.2053C164.469 41.5731 164.369 42.022 164.369 42.5521ZM175.598 51.5902C174.587 51.5902 173.786 51.4063 173.196 51.0385C172.612 50.6707 172.18 50.2488 171.898 49.7728L173.002 48.9939C173.126 49.1616 173.286 49.3509 173.48 49.5619C173.675 49.7782 173.94 49.9648 174.276 50.1217C174.611 50.2785 175.052 50.3569 175.598 50.3569C176.328 50.3569 176.931 50.1812 177.407 49.8296C177.889 49.478 178.129 48.9236 178.129 48.1664V46.3328H177.999C177.902 46.4951 177.759 46.6979 177.569 46.9413C177.386 47.1793 177.118 47.3929 176.766 47.5822C176.42 47.7661 175.95 47.8581 175.355 47.8581C174.624 47.8581 173.97 47.685 173.391 47.3388C172.812 46.9927 172.353 46.4897 172.012 45.8298C171.677 45.1699 171.509 44.3694 171.509 43.4283C171.509 42.498 171.671 41.6894 171.996 41.0024C172.326 40.3101 172.783 39.7746 173.367 39.396C173.951 39.012 174.624 38.82 175.387 38.82C175.977 38.82 176.444 38.9173 176.791 39.1121C177.142 39.3068 177.41 39.5285 177.594 39.7773C177.783 40.0207 177.929 40.2209 178.032 40.3777H178.178V38.9336H179.509V48.2637C179.509 49.0426 179.333 49.6754 178.981 50.1622C178.635 50.6544 178.164 51.0141 177.569 51.2413C176.98 51.4739 176.323 51.5902 175.598 51.5902ZM175.549 46.6087C176.388 46.6087 177.029 46.3247 177.472 45.7568C177.921 45.1888 178.146 44.4019 178.146 43.3958C178.146 42.7414 178.048 42.1653 177.853 41.6677C177.659 41.1701 177.367 40.7807 176.977 40.4994C176.593 40.2127 176.117 40.0694 175.549 40.0694C174.96 40.0694 174.468 40.2209 174.073 40.5238C173.683 40.8212 173.391 41.2215 173.196 41.7245C173.002 42.2275 172.904 42.7846 172.904 43.3958C172.904 44.0232 173.002 44.5804 173.196 45.0671C173.397 45.5485 173.694 45.9271 174.089 46.203C174.484 46.4734 174.971 46.6087 175.549 46.6087ZM185.366 48.0041V35.9155H189.455C190.402 35.9155 191.175 36.0858 191.776 36.4266C192.381 36.7673 192.83 37.2271 193.122 37.8058C193.415 38.3846 193.561 39.0309 193.561 39.7449C193.561 40.4534 193.415 41.0998 193.122 41.6839C192.836 42.2681 192.39 42.7332 191.784 43.0794C191.183 43.4202 190.413 43.5905 189.472 43.5905H186.551V42.2924H189.423C190.072 42.2924 190.594 42.1816 190.989 41.9598C191.384 41.738 191.67 41.4351 191.849 41.0511C192.027 40.6617 192.116 40.2263 192.116 39.7449C192.116 39.2581 192.027 38.8254 191.849 38.4468C191.67 38.0628 191.381 37.7626 190.981 37.5462C190.586 37.3245 190.061 37.2136 189.407 37.2136H186.827V48.0041H185.366ZM196.335 42.5521V48.0041H194.956V35.9155H196.335V40.3615H196.465C196.676 39.8909 196.992 39.5177 197.414 39.2419C197.842 38.9606 198.412 38.82 199.126 38.82C199.743 38.82 200.284 38.9444 200.749 39.1932C201.214 39.4366 201.576 39.8125 201.836 40.3209C202.096 40.8239 202.225 41.4649 202.225 42.2438V48.0041H200.83V42.3411C200.83 41.6163 200.643 41.0565 200.27 40.6617C199.897 40.2668 199.38 40.0694 198.721 40.0694C198.261 40.0694 197.852 40.1668 197.495 40.3615C197.138 40.5562 196.855 40.8375 196.644 41.2053C196.438 41.5731 196.335 42.022 196.335 42.5521ZM207.678 48.1988C206.861 48.1988 206.144 48.0041 205.528 47.6147C204.911 47.2253 204.43 46.679 204.083 45.9758C203.743 45.2727 203.572 44.4559 203.572 43.5256C203.572 42.5791 203.743 41.7543 204.083 41.0511C204.43 40.3426 204.911 39.7936 205.528 39.4041C206.144 39.0147 206.861 38.82 207.678 38.82C208.5 38.82 209.219 39.0147 209.836 39.4041C210.452 39.7936 210.934 40.3426 211.28 41.0511C211.626 41.7543 211.799 42.5791 211.799 43.5256C211.799 44.4559 211.626 45.2727 211.28 45.9758C210.934 46.679 210.452 47.2253 209.836 47.6147C209.219 48.0041 208.5 48.1988 207.678 48.1988ZM207.678 46.9494C208.305 46.9494 208.819 46.7898 209.219 46.4707C209.619 46.1516 209.917 45.7324 210.111 45.2132C210.306 44.6885 210.404 44.126 210.404 43.5256C210.404 42.9144 210.306 42.3465 210.111 41.8219C209.917 41.2972 209.619 40.8753 209.219 40.5562C208.819 40.2317 208.305 40.0694 207.678 40.0694C207.061 40.0694 206.553 40.2317 206.152 40.5562C205.752 40.8753 205.455 41.2972 205.26 41.8219C205.065 42.3465 204.968 42.9144 204.968 43.5256C204.968 44.126 205.065 44.6885 205.26 45.2132C205.455 45.7324 205.752 46.1516 206.152 46.4707C206.553 46.7898 207.061 46.9494 207.678 46.9494ZM208.489 35.8181L210.728 37.96H209.268L207.661 36.4672L206.071 37.96H204.611L206.85 35.8181H208.489ZM210.955 36.8241H209.965V35.737C210.301 35.7153 210.547 35.6721 210.704 35.6072C210.861 35.5423 210.939 35.4233 210.939 35.2502C210.939 35.0609 210.831 34.9284 210.615 34.8526C210.404 34.7715 210.139 34.7309 209.819 34.7309L209.868 33.9521C210.577 33.9521 211.112 34.0711 211.475 34.309C211.837 34.547 212.021 34.8662 212.026 35.2664C212.021 35.6234 211.907 35.883 211.685 36.0453C211.469 36.2021 211.226 36.2995 210.955 36.3373V36.8241ZM220.967 38.9336V40.1181H216.278V38.9336H220.967ZM217.641 36.7755H219.02V45.4079C219.02 45.8785 219.117 46.2246 219.312 46.4464C219.507 46.6627 219.815 46.7709 220.237 46.7709C220.329 46.7709 220.423 46.7655 220.521 46.7547C220.623 46.7439 220.734 46.7276 220.853 46.706L221.145 47.9554C221.016 48.0041 220.856 48.042 220.667 48.069C220.483 48.1015 220.296 48.1177 220.107 48.1177C219.377 48.1177 218.782 47.9014 218.322 47.4686C217.868 47.0359 217.641 46.4734 217.641 45.7811V36.7755ZM223.871 42.5521V48.0041H222.492V35.9155H223.871V40.3615H224.001C224.212 39.8909 224.529 39.5177 224.951 39.2419C225.378 38.9606 225.948 38.82 226.662 38.82C227.279 38.82 227.82 38.9444 228.285 39.1932C228.75 39.4366 229.113 39.8125 229.372 40.3209C229.632 40.8239 229.762 41.4649 229.762 42.2438V48.0041H228.366V42.3411C228.366 41.6163 228.18 41.0565 227.806 40.6617C227.433 40.2668 226.917 40.0694 226.257 40.0694C225.797 40.0694 225.389 40.1668 225.032 40.3615C224.675 40.5562 224.391 40.8375 224.18 41.2053C223.974 41.5731 223.871 42.022 223.871 42.5521ZM235.214 48.1988C234.397 48.1988 233.68 48.0041 233.064 47.6147C232.447 47.2253 231.966 46.679 231.62 45.9758C231.279 45.2727 231.108 44.4559 231.108 43.5256C231.108 42.5791 231.279 41.7543 231.62 41.0511C231.966 40.3426 232.447 39.7936 233.064 39.4041C233.68 39.0147 234.397 38.82 235.214 38.82C236.036 38.82 236.755 39.0147 237.372 39.4041C237.988 39.7936 238.47 40.3426 238.816 41.0511C239.162 41.7543 239.335 42.5791 239.335 43.5256C239.335 44.4559 239.162 45.2727 238.816 45.9758C238.47 46.679 237.988 47.2253 237.372 47.6147C236.755 48.0041 236.036 48.1988 235.214 48.1988ZM235.214 46.9494C235.841 46.9494 236.355 46.7898 236.755 46.4707C237.155 46.1516 237.453 45.7324 237.648 45.2132C237.842 44.6885 237.94 44.126 237.94 43.5256C237.94 42.9144 237.842 42.3465 237.648 41.8219C237.453 41.2972 237.155 40.8753 236.755 40.5562C236.355 40.2317 235.841 40.0694 235.214 40.0694C234.597 40.0694 234.089 40.2317 233.688 40.5562C233.288 40.8753 232.991 41.2972 232.796 41.8219C232.601 42.3465 232.504 42.9144 232.504 43.5256C232.504 44.126 232.601 44.6885 232.796 45.2132C232.991 45.7324 233.288 46.1516 233.688 46.4707C234.089 46.7898 234.597 46.9494 235.214 46.9494ZM236.431 37.8626L235.197 36.2075L233.981 37.8626H232.65V37.7653L234.565 35.2989H235.847L237.745 37.7653V37.8626H236.431ZM242.061 42.5521V48.0041H240.682V38.9336H242.013V40.3615H242.142C242.353 39.8963 242.675 39.5231 243.108 39.2419C243.541 38.9606 244.1 38.82 244.787 38.82C245.398 38.82 245.934 38.9444 246.394 39.1932C246.853 39.442 247.21 39.8206 247.465 40.329C247.724 40.8321 247.854 41.4703 247.854 42.2438V48.0041H246.475V42.3411C246.475 41.6326 246.288 41.0782 245.915 40.6779C245.542 40.2722 245.033 40.0694 244.39 40.0694C243.946 40.0694 243.549 40.1668 243.197 40.3615C242.846 40.5562 242.567 40.8375 242.361 41.2053C242.161 41.5731 242.061 42.022 242.061 42.5521ZM253.29 51.5902C252.278 51.5902 251.478 51.4063 250.888 51.0385C250.304 50.6707 249.872 50.2488 249.59 49.7728L250.694 48.9939C250.818 49.1616 250.978 49.3509 251.172 49.5619C251.367 49.7782 251.632 49.9648 251.967 50.1217C252.303 50.2785 252.744 50.3569 253.29 50.3569C254.02 50.3569 254.623 50.1812 255.099 49.8296C255.581 49.478 255.821 48.9236 255.821 48.1664V46.3328H255.691C255.594 46.4951 255.451 46.6979 255.261 46.9413C255.078 47.1793 254.81 47.3929 254.458 47.5822C254.112 47.7661 253.641 47.8581 253.047 47.8581C252.316 47.8581 251.662 47.685 251.083 47.3388C250.504 46.9927 250.045 46.4897 249.704 45.8298C249.369 45.1699 249.201 44.3694 249.201 43.4283C249.201 42.498 249.363 41.6894 249.688 41.0024C250.018 40.3101 250.475 39.7746 251.059 39.396C251.643 39.012 252.316 38.82 253.079 38.82C253.669 38.82 254.136 38.9173 254.483 39.1121C254.834 39.3068 255.102 39.5285 255.286 39.7773C255.475 40.0207 255.621 40.2209 255.724 40.3777H255.87V38.9336H257.2V48.2637C257.2 49.0426 257.025 49.6754 256.673 50.1622C256.327 50.6544 255.856 51.0141 255.261 51.2413C254.672 51.4739 254.015 51.5902 253.29 51.5902ZM253.241 46.6087C254.08 46.6087 254.721 46.3247 255.164 45.7568C255.613 45.1888 255.837 44.4019 255.837 43.3958C255.837 42.7414 255.74 42.1653 255.545 41.6677C255.351 41.1701 255.059 40.7807 254.669 40.4994C254.285 40.2127 253.809 40.0694 253.241 40.0694C252.652 40.0694 252.159 40.2209 251.765 40.5238C251.375 40.8212 251.083 41.2215 250.888 41.7245C250.694 42.2275 250.596 42.7846 250.596 43.3958C250.596 44.0232 250.694 44.5804 250.888 45.0671C251.089 45.5485 251.386 45.9271 251.781 46.203C252.176 46.4734 252.662 46.6087 253.241 46.6087ZM272.664 35.9155V48.0041H271.22L264.648 38.5117H264.519V48.0041H263.058V35.9155H264.47L271.09 45.4241H271.204V35.9155H272.664ZM277.289 48.2151C276.715 48.2151 276.193 48.1069 275.723 47.8905C275.252 47.6688 274.879 47.3497 274.603 46.9332C274.327 46.5167 274.189 46.0137 274.189 45.4241C274.189 44.9049 274.292 44.4857 274.498 44.1666C274.703 43.8421 274.976 43.5878 275.317 43.4039C275.663 43.2146 276.042 43.074 276.453 42.9821C276.87 42.8901 277.289 42.8171 277.711 42.763C278.262 42.6927 278.709 42.6386 279.049 42.6007C279.395 42.5629 279.647 42.498 279.804 42.406C279.966 42.3141 280.047 42.1572 280.047 41.9355V41.8868C280.047 41.308 279.888 40.8591 279.569 40.54C279.255 40.2155 278.776 40.0532 278.133 40.0532C277.473 40.0532 276.953 40.1992 276.575 40.4913C276.196 40.778 275.931 41.0863 275.78 41.4162L274.449 40.9456C274.687 40.3939 275.004 39.9639 275.398 39.6556C275.799 39.3473 276.231 39.131 276.696 39.0066C277.167 38.8822 277.629 38.82 278.084 38.82C278.376 38.82 278.711 38.8551 279.09 38.9255C279.468 38.9904 279.836 39.131 280.193 39.3473C280.556 39.5583 280.853 39.8801 281.086 40.3128C281.324 40.7401 281.443 41.3134 281.443 42.0328V48.0041H280.047V46.7709H279.982C279.89 46.9656 279.734 47.1766 279.512 47.4037C279.29 47.6255 278.995 47.8175 278.627 47.9798C278.265 48.1366 277.819 48.2151 277.289 48.2151ZM277.5 46.9656C278.051 46.9656 278.517 46.8575 278.895 46.6411C279.274 46.4248 279.56 46.1462 279.755 45.8054C279.95 45.4593 280.047 45.0996 280.047 44.7264V43.4445C279.988 43.5148 279.858 43.5797 279.658 43.6392C279.463 43.6933 279.236 43.742 278.976 43.7853C278.722 43.8285 278.473 43.8664 278.23 43.8988C277.986 43.9259 277.792 43.9475 277.646 43.9637C277.283 44.0124 276.945 44.0909 276.632 44.199C276.318 44.3018 276.064 44.4559 275.869 44.6615C275.68 44.867 275.585 45.1483 275.585 45.5053C275.585 45.9866 275.763 46.3517 276.12 46.6005C276.483 46.8439 276.943 46.9656 277.5 46.9656ZM278.181 37.8545C277.456 37.8545 276.867 37.6517 276.413 37.246C275.964 36.835 275.739 36.3022 275.739 35.6477H277.037C277.037 35.9993 277.143 36.286 277.354 36.5077C277.565 36.7295 277.84 36.8404 278.181 36.8404C278.522 36.8404 278.798 36.7295 279.009 36.5077C279.22 36.286 279.325 35.9993 279.325 35.6477H280.623C280.623 36.3022 280.396 36.835 279.942 37.246C279.493 37.6517 278.906 37.8545 278.181 37.8545ZM284.607 42.5521V48.0041H283.228V38.9336H284.558V40.3615H284.688C284.899 39.8963 285.221 39.5231 285.653 39.2419C286.086 38.9606 286.646 38.82 287.333 38.82C287.944 38.82 288.48 38.9444 288.939 39.1932C289.399 39.442 289.756 39.8206 290.01 40.329C290.27 40.8321 290.4 41.4703 290.4 42.2438V48.0041H289.02V42.3411C289.02 41.6326 288.834 41.0782 288.461 40.6779C288.087 40.2722 287.579 40.0694 286.935 40.0694C286.492 40.0694 286.094 40.1668 285.743 40.3615C285.391 40.5562 285.113 40.8375 284.907 41.2053C284.707 41.5731 284.607 42.022 284.607 42.5521ZM295.836 51.5902C294.824 51.5902 294.024 51.4063 293.434 51.0385C292.85 50.6707 292.417 50.2488 292.136 49.7728L293.239 48.9939C293.364 49.1616 293.523 49.3509 293.718 49.5619C293.913 49.7782 294.178 49.9648 294.513 50.1217C294.848 50.2785 295.289 50.3569 295.836 50.3569C296.566 50.3569 297.169 50.1812 297.645 49.8296C298.126 49.478 298.367 48.9236 298.367 48.1664V46.3328H298.237C298.14 46.4951 297.996 46.6979 297.807 46.9413C297.623 47.1793 297.355 47.3929 297.004 47.5822C296.658 47.7661 296.187 47.8581 295.592 47.8581C294.862 47.8581 294.207 47.685 293.629 47.3388C293.05 46.9927 292.59 46.4897 292.249 45.8298C291.914 45.1699 291.746 44.3694 291.746 43.4283C291.746 42.498 291.909 41.6894 292.233 41.0024C292.563 40.3101 293.02 39.7746 293.604 39.396C294.189 39.012 294.862 38.82 295.625 38.82C296.214 38.82 296.682 38.9173 297.028 39.1121C297.38 39.3068 297.647 39.5285 297.831 39.7773C298.021 40.0207 298.167 40.2209 298.269 40.3777H298.415V38.9336H299.746V48.2637C299.746 49.0426 299.57 49.6754 299.219 50.1622C298.873 50.6544 298.402 51.0141 297.807 51.2413C297.217 51.4739 296.56 51.5902 295.836 51.5902ZM295.787 46.6087C296.625 46.6087 297.266 46.3247 297.71 45.7568C298.159 45.1888 298.383 44.4019 298.383 43.3958C298.383 42.7414 298.286 42.1653 298.091 41.6677C297.896 41.1701 297.604 40.7807 297.215 40.4994C296.831 40.2127 296.355 40.0694 295.787 40.0694C295.197 40.0694 294.705 40.2209 294.31 40.5238C293.921 40.8212 293.629 41.2215 293.434 41.7245C293.239 42.2275 293.142 42.7846 293.142 43.3958C293.142 44.0232 293.239 44.5804 293.434 45.0671C293.634 45.5485 293.932 45.9271 294.326 46.203C294.721 46.4734 295.208 46.6087 295.787 46.6087ZM305.604 48.0041V35.9155H307.064V41.9192H307.21L312.646 35.9155H314.545L309.482 41.3675L314.545 48.0041H312.776L308.573 42.3898L307.064 44.0936V48.0041H305.604ZM316.865 42.5521V48.0041H315.486V35.9155H316.865V40.3615H316.995C317.206 39.8909 317.522 39.5177 317.944 39.2419C318.371 38.9606 318.942 38.82 319.656 38.82C320.272 38.82 320.813 38.9444 321.278 39.1932C321.744 39.4366 322.106 39.8125 322.366 40.3209C322.625 40.8239 322.755 41.4649 322.755 42.2438V48.0041H321.36V42.3411C321.36 41.6163 321.173 41.0565 320.8 40.6617C320.427 40.2668 319.91 40.0694 319.25 40.0694C318.79 40.0694 318.382 40.1668 318.025 40.3615C317.668 40.5562 317.384 40.8375 317.173 41.2053C316.968 41.5731 316.865 42.022 316.865 42.5521ZM324.54 48.0041V38.9336H325.919V48.0041H324.54ZM325.238 37.4245C324.967 37.4245 324.735 37.3326 324.54 37.1487C324.345 36.9648 324.248 36.743 324.248 36.4834C324.248 36.2238 324.345 36.002 324.54 35.8181C324.735 35.6342 324.967 35.5423 325.238 35.5423C325.508 35.5423 325.741 35.6342 325.935 35.8181C326.13 36.002 326.228 36.2238 326.228 36.4834C326.228 36.743 326.13 36.9648 325.935 37.1487C325.741 37.3326 325.508 37.4245 325.238 37.4245ZM331.501 48.1988C330.63 48.1988 329.876 48.0041 329.238 47.6147C328.605 47.2253 328.118 46.6817 327.777 45.9839C327.436 45.2808 327.266 44.4668 327.266 43.5419C327.266 42.6116 327.434 41.7921 327.769 41.0836C328.104 40.375 328.575 39.8206 329.181 39.4204C329.792 39.0201 330.506 38.82 331.323 38.82C331.793 38.82 332.261 38.8984 332.726 39.0553C333.191 39.2121 333.613 39.4663 333.992 39.8179C334.376 40.1695 334.681 40.6346 334.909 41.2134C335.136 41.7921 335.249 42.5034 335.249 43.3471V43.9475H328.256V42.7468H334.495L333.854 43.2011C333.854 42.5953 333.759 42.0571 333.57 41.5866C333.381 41.116 333.097 40.7455 332.718 40.4751C332.345 40.2046 331.88 40.0694 331.323 40.0694C330.766 40.0694 330.287 40.2073 329.887 40.4832C329.492 40.7536 329.189 41.1079 328.978 41.546C328.767 41.9841 328.661 42.4547 328.661 42.9577V43.7528C328.661 44.4397 328.78 45.0212 329.018 45.4971C329.256 45.9731 329.589 46.3355 330.016 46.5843C330.444 46.8277 330.939 46.9494 331.501 46.9494C331.863 46.9494 332.193 46.898 332.491 46.7953C332.788 46.6871 333.045 46.5275 333.262 46.3166C333.478 46.1002 333.643 45.8352 333.757 45.5215L335.103 45.9109C334.963 46.3653 334.725 46.7655 334.389 47.1117C334.059 47.4524 333.648 47.7202 333.156 47.9149C332.664 48.1042 332.112 48.1988 331.501 48.1988ZM328.24 37.7977L330.641 35.6558H331.939L334.357 37.7977H332.653L331.306 36.5483L329.96 37.7977H328.24ZM333.708 36.3536L334.876 34.2279H336.596L334.941 36.3536H333.708ZM342.275 44.3045V38.9336H343.655V48.0041H342.275V46.4626H342.178C341.962 46.9224 341.629 47.3145 341.18 47.639C340.737 47.9636 340.171 48.1231 339.484 48.1177C338.917 48.1177 338.414 47.996 337.975 47.7526C337.537 47.5038 337.191 47.1252 336.937 46.6168C336.688 46.1083 336.564 45.4674 336.564 44.6939V38.9336H337.943V44.6128C337.943 45.2673 338.13 45.7919 338.503 46.1868C338.881 46.5816 339.36 46.7763 339.939 46.7709C340.285 46.7709 340.637 46.6844 340.994 46.5113C341.356 46.3328 341.659 46.0624 341.902 45.7C342.151 45.3322 342.275 44.867 342.275 44.3045Z" fill="white"/>
</svg>
